# xmcd CD database file
#
# Track frame offsets:
#	150
#	12362
#	25587
#	39662
#	60037
#	76462
#	89737
#	107287
#	123250
#	131937
#
# Disc length: 2041 seconds
#
# Revision: 0
# Processed by: cddbd v1.5.2PL0 Copyright (c) Steve Scherf et al.
# Submitted via: CDex 1.70beta2
#
DISCID=7407f70a
DTITLE=Jose Mari Chan - Thank You Love
DYEAR=10369
DGENRE=Jazz
TTITLE0=Thank You
TTITLE1=Is She Thinking Of Me
TTITLE2=Walking In The Moonlight
TTITLE3=Hurry Back
TTITLE4=Love Lost
TTITLE5=Give Me The Old Big Band Anytime
TTITLE6=Like Night And Day
TTITLE7=Part Of Your Life
TTITLE8=Spellbound
TTITLE9=Christmas Past
EXTD=YEAR: 10369
EXTT0=
EXTT1=
EXTT2=
EXTT3=
EXTT4=
EXTT5=
EXTT6=
EXTT7=
EXTT8=
EXTT9=
PLAYORDER=
